<mxfile host="app.diagrams.net" agent="Mozilla/5.0 (Windows NT 10.0; Win64; x64) AppleWebKit/537.36 (KHTML, like Gecko) Chrome/135.0.0.0 Safari/537.36" version="26.2.13">
  <diagram name="Страница — 1" id="G0o_o_z2FBJybNYRQzqR">
    <mxGraphModel dx="3024" dy="1143" grid="1" gridSize="10" guides="1" tooltips="1" connect="1" arrows="1" fold="1" page="1" pageScale="1" pageWidth="827" pageHeight="1169" math="0" shadow="0">
      <root>
        <mxCell id="0" />
        <mxCell id="1" parent="0" />
        <mxCell id="mlF1m_A3CtvptzTsDHFS-3" style="edgeStyle=orthogonalEdgeStyle;rounded=0;orthogonalLoop=1;jettySize=auto;html=1;exitX=0.5;exitY=1;exitDx=0;exitDy=0;entryX=0.5;entryY=0;entryDx=0;entryDy=0;" edge="1" parent="1" source="mlF1m_A3CtvptzTsDHFS-1" target="mlF1m_A3CtvptzTsDHFS-2">
          <mxGeometry relative="1" as="geometry" />
        </mxCell>
        <mxCell id="mlF1m_A3CtvptzTsDHFS-1" value="Авторизация" style="rounded=0;whiteSpace=wrap;html=1;" vertex="1" parent="1">
          <mxGeometry x="-80" y="160" width="120" height="60" as="geometry" />
        </mxCell>
        <mxCell id="mlF1m_A3CtvptzTsDHFS-4" style="edgeStyle=orthogonalEdgeStyle;rounded=0;orthogonalLoop=1;jettySize=auto;html=1;exitX=0.75;exitY=0;exitDx=0;exitDy=0;entryX=0.75;entryY=1;entryDx=0;entryDy=0;" edge="1" parent="1" source="mlF1m_A3CtvptzTsDHFS-2" target="mlF1m_A3CtvptzTsDHFS-1">
          <mxGeometry relative="1" as="geometry" />
        </mxCell>
        <mxCell id="mlF1m_A3CtvptzTsDHFS-8" style="edgeStyle=orthogonalEdgeStyle;rounded=0;orthogonalLoop=1;jettySize=auto;html=1;entryX=0;entryY=0.5;entryDx=0;entryDy=0;" edge="1" parent="1" source="mlF1m_A3CtvptzTsDHFS-2" target="mlF1m_A3CtvptzTsDHFS-5">
          <mxGeometry relative="1" as="geometry" />
        </mxCell>
        <mxCell id="mlF1m_A3CtvptzTsDHFS-2" value="Регистрация" style="rounded=0;whiteSpace=wrap;html=1;" vertex="1" parent="1">
          <mxGeometry x="-80" y="250" width="120" height="60" as="geometry" />
        </mxCell>
        <mxCell id="mlF1m_A3CtvptzTsDHFS-12" style="edgeStyle=orthogonalEdgeStyle;rounded=0;orthogonalLoop=1;jettySize=auto;html=1;entryX=0;entryY=0.5;entryDx=0;entryDy=0;" edge="1" parent="1" source="mlF1m_A3CtvptzTsDHFS-5" target="mlF1m_A3CtvptzTsDHFS-11">
          <mxGeometry relative="1" as="geometry" />
        </mxCell>
        <mxCell id="mlF1m_A3CtvptzTsDHFS-5" value="Выбор персонажа" style="rounded=0;whiteSpace=wrap;html=1;" vertex="1" parent="1">
          <mxGeometry x="354" y="250" width="120" height="60" as="geometry" />
        </mxCell>
        <mxCell id="mlF1m_A3CtvptzTsDHFS-9" style="edgeStyle=orthogonalEdgeStyle;rounded=0;orthogonalLoop=1;jettySize=auto;html=1;exitX=0.5;exitY=0;exitDx=0;exitDy=0;entryX=0.25;entryY=1;entryDx=0;entryDy=0;" edge="1" parent="1" source="mlF1m_A3CtvptzTsDHFS-6" target="mlF1m_A3CtvptzTsDHFS-5">
          <mxGeometry relative="1" as="geometry" />
        </mxCell>
        <mxCell id="mlF1m_A3CtvptzTsDHFS-6" value="Внешний вид персонажа" style="rounded=0;whiteSpace=wrap;html=1;" vertex="1" parent="1">
          <mxGeometry x="160" y="460" width="120" height="60" as="geometry" />
        </mxCell>
        <mxCell id="mlF1m_A3CtvptzTsDHFS-10" style="edgeStyle=orthogonalEdgeStyle;rounded=0;orthogonalLoop=1;jettySize=auto;html=1;exitX=0.5;exitY=0;exitDx=0;exitDy=0;entryX=0.75;entryY=1;entryDx=0;entryDy=0;" edge="1" parent="1" source="mlF1m_A3CtvptzTsDHFS-7" target="mlF1m_A3CtvptzTsDHFS-5">
          <mxGeometry relative="1" as="geometry" />
        </mxCell>
        <mxCell id="mlF1m_A3CtvptzTsDHFS-7" value="Сложность тренировки" style="rounded=0;whiteSpace=wrap;html=1;" vertex="1" parent="1">
          <mxGeometry x="560" y="470" width="120" height="60" as="geometry" />
        </mxCell>
        <mxCell id="mlF1m_A3CtvptzTsDHFS-11" value="Главное окно" style="rounded=0;whiteSpace=wrap;html=1;" vertex="1" parent="1">
          <mxGeometry x="810" y="250" width="120" height="60" as="geometry" />
        </mxCell>
      </root>
    </mxGraphModel>
  </diagram>
</mxfile>
